<?xml version="1.0" encoding="utf-8"?>
<!-- Generator: Adobe Illustrator 25.2.1, SVG Export Plug-In . SVG Version: 6.00 Build 0)  -->
<svg version="1.1" id="Camada_1" xmlns="http://www.w3.org/2000/svg" xmlns:xlink="http://www.w3.org/1999/xlink" x="0px" y="0px"
	 viewBox="0 0 1000 1000" style="enable-background:new 0 0 1000 1000;" xml:space="preserve">
<style type="text/css">
	.st0{fill:#FFFFFF;}
</style>
<g>
	<path class="st0" d="M457.3,577.3c-1.1-2-2.6-3.5-4.5-4.6c-1.9-1.1-4-1.7-6.4-1.7s-4.6,0.6-6.5,1.7c-1.9,1.1-3.4,2.7-4.5,4.6
		c-1.1,2-1.6,4.2-1.6,6.7c0,2.5,0.5,4.7,1.6,6.6c1.1,2,2.6,3.5,4.5,4.6c1.9,1.1,4.1,1.7,6.5,1.7s4.5-0.6,6.4-1.7
		c1.9-1.1,3.4-2.7,4.5-4.6c1.1-1.9,1.6-4.1,1.6-6.6C458.9,581.5,458.4,579.3,457.3,577.3z M457.3,577.3c-1.1-2-2.6-3.5-4.5-4.6
		c-1.9-1.1-4-1.7-6.4-1.7s-4.6,0.6-6.5,1.7c-1.9,1.1-3.4,2.7-4.5,4.6c-1.1,2-1.6,4.2-1.6,6.7c0,2.5,0.5,4.7,1.6,6.6
		c1.1,2,2.6,3.5,4.5,4.6c1.9,1.1,4.1,1.7,6.5,1.7s4.5-0.6,6.4-1.7c1.9-1.1,3.4-2.7,4.5-4.6c1.1-1.9,1.6-4.1,1.6-6.6
		C458.9,581.5,458.4,579.3,457.3,577.3z M457.3,577.3c-1.1-2-2.6-3.5-4.5-4.6c-1.9-1.1-4-1.7-6.4-1.7s-4.6,0.6-6.5,1.7
		c-1.9,1.1-3.4,2.7-4.5,4.6c-1.1,2-1.6,4.2-1.6,6.7c0,2.5,0.5,4.7,1.6,6.6c1.1,2,2.6,3.5,4.5,4.6c1.9,1.1,4.1,1.7,6.5,1.7
		s4.5-0.6,6.4-1.7c1.9-1.1,3.4-2.7,4.5-4.6c1.1-1.9,1.6-4.1,1.6-6.6C458.9,581.5,458.4,579.3,457.3,577.3z M457.3,577.3
		c-1.1-2-2.6-3.5-4.5-4.6c-1.9-1.1-4-1.7-6.4-1.7s-4.6,0.6-6.5,1.7c-1.9,1.1-3.4,2.7-4.5,4.6c-1.1,2-1.6,4.2-1.6,6.7
		c0,2.5,0.5,4.7,1.6,6.6c1.1,2,2.6,3.5,4.5,4.6c1.9,1.1,4.1,1.7,6.5,1.7s4.5-0.6,6.4-1.7c1.9-1.1,3.4-2.7,4.5-4.6
		c1.1-1.9,1.6-4.1,1.6-6.6C458.9,581.5,458.4,579.3,457.3,577.3z M457.3,577.3c-1.1-2-2.6-3.5-4.5-4.6c-1.9-1.1-4-1.7-6.4-1.7
		s-4.6,0.6-6.5,1.7c-1.9,1.1-3.4,2.7-4.5,4.6c-1.1,2-1.6,4.2-1.6,6.7c0,2.5,0.5,4.7,1.6,6.6c1.1,2,2.6,3.5,4.5,4.6
		c1.9,1.1,4.1,1.7,6.5,1.7s4.5-0.6,6.4-1.7c1.9-1.1,3.4-2.7,4.5-4.6c1.1-1.9,1.6-4.1,1.6-6.6C458.9,581.5,458.4,579.3,457.3,577.3z
		 M457.3,577.3c-1.1-2-2.6-3.5-4.5-4.6c-1.9-1.1-4-1.7-6.4-1.7s-4.6,0.6-6.5,1.7c-1.9,1.1-3.4,2.7-4.5,4.6c-1.1,2-1.6,4.2-1.6,6.7
		c0,2.5,0.5,4.7,1.6,6.6c1.1,2,2.6,3.5,4.5,4.6c1.9,1.1,4.1,1.7,6.5,1.7s4.5-0.6,6.4-1.7c1.9-1.1,3.4-2.7,4.5-4.6
		c1.1-1.9,1.6-4.1,1.6-6.6C458.9,581.5,458.4,579.3,457.3,577.3z M457.3,577.3c-1.1-2-2.6-3.5-4.5-4.6c-1.9-1.1-4-1.7-6.4-1.7
		s-4.6,0.6-6.5,1.7c-1.9,1.1-3.4,2.7-4.5,4.6c-1.1,2-1.6,4.2-1.6,6.7c0,2.5,0.5,4.7,1.6,6.6c1.1,2,2.6,3.5,4.5,4.6
		c1.9,1.1,4.1,1.7,6.5,1.7s4.5-0.6,6.4-1.7c1.9-1.1,3.4-2.7,4.5-4.6c1.1-1.9,1.6-4.1,1.6-6.6C458.9,581.5,458.4,579.3,457.3,577.3z
		 M457.3,577.3c-1.1-2-2.6-3.5-4.5-4.6c-1.9-1.1-4-1.7-6.4-1.7s-4.6,0.6-6.5,1.7c-1.9,1.1-3.4,2.7-4.5,4.6c-1.1,2-1.6,4.2-1.6,6.7
		c0,2.5,0.5,4.7,1.6,6.6c1.1,2,2.6,3.5,4.5,4.6c1.9,1.1,4.1,1.7,6.5,1.7s4.5-0.6,6.4-1.7c1.9-1.1,3.4-2.7,4.5-4.6
		c1.1-1.9,1.6-4.1,1.6-6.6C458.9,581.5,458.4,579.3,457.3,577.3z M457.3,577.3c-1.1-2-2.6-3.5-4.5-4.6c-1.9-1.1-4-1.7-6.4-1.7
		s-4.6,0.6-6.5,1.7c-1.9,1.1-3.4,2.7-4.5,4.6c-1.1,2-1.6,4.2-1.6,6.7c0,2.5,0.5,4.7,1.6,6.6c1.1,2,2.6,3.5,4.5,4.6
		c1.9,1.1,4.1,1.7,6.5,1.7s4.5-0.6,6.4-1.7c1.9-1.1,3.4-2.7,4.5-4.6c1.1-1.9,1.6-4.1,1.6-6.6C458.9,581.5,458.4,579.3,457.3,577.3z
		 M573.1,577c-0.9-1.9-2.2-3.4-3.9-4.5c-1.7-1.1-3.7-1.6-6-1.6c-2.3,0-4.4,0.6-6.2,1.7c-1.8,1.1-3.2,2.7-4.1,4.6
		c-0.7,1.3-1.1,2.8-1.3,4.3h22.7C574.1,579.9,573.7,578.4,573.1,577z M573.1,577c-0.9-1.9-2.2-3.4-3.9-4.5c-1.7-1.1-3.7-1.6-6-1.6
		c-2.3,0-4.4,0.6-6.2,1.7c-1.8,1.1-3.2,2.7-4.1,4.6c-0.7,1.3-1.1,2.8-1.3,4.3h22.7C574.1,579.9,573.7,578.4,573.1,577z M457.3,577.3
		c-1.1-2-2.6-3.5-4.5-4.6c-1.9-1.1-4-1.7-6.4-1.7s-4.6,0.6-6.5,1.7c-1.9,1.1-3.4,2.7-4.5,4.6c-1.1,2-1.6,4.2-1.6,6.7
		c0,2.5,0.5,4.7,1.6,6.6c1.1,2,2.6,3.5,4.5,4.6c1.9,1.1,4.1,1.7,6.5,1.7s4.5-0.6,6.4-1.7c1.9-1.1,3.4-2.7,4.5-4.6
		c1.1-1.9,1.6-4.1,1.6-6.6C458.9,581.5,458.4,579.3,457.3,577.3z M457.3,577.3c-1.1-2-2.6-3.5-4.5-4.6c-1.9-1.1-4-1.7-6.4-1.7
		s-4.6,0.6-6.5,1.7c-1.9,1.1-3.4,2.7-4.5,4.6c-1.1,2-1.6,4.2-1.6,6.7c0,2.5,0.5,4.7,1.6,6.6c1.1,2,2.6,3.5,4.5,4.6
		c1.9,1.1,4.1,1.7,6.5,1.7s4.5-0.6,6.4-1.7c1.9-1.1,3.4-2.7,4.5-4.6c1.1-1.9,1.6-4.1,1.6-6.6C458.9,581.5,458.4,579.3,457.3,577.3z
		 M573.1,577c-0.9-1.9-2.2-3.4-3.9-4.5c-1.7-1.1-3.7-1.6-6-1.6c-2.3,0-4.4,0.6-6.2,1.7c-1.8,1.1-3.2,2.7-4.1,4.6
		c-0.7,1.3-1.1,2.8-1.3,4.3h22.7C574.1,579.9,573.7,578.4,573.1,577z M677.2,577.3c-1.1-1.9-2.6-3.5-4.5-4.6c-1.9-1.1-4-1.7-6.4-1.7
		c-2.4,0-4.5,0.6-6.4,1.7c-1.9,1.1-3.4,2.7-4.5,4.6c-1.1,1.9-1.7,4.2-1.7,6.6c0,2.4,0.6,4.6,1.7,6.6c1.1,2,2.6,3.5,4.5,4.6
		c1.9,1.1,4,1.7,6.4,1.7c2.4,0,4.5-0.6,6.4-1.7c1.9-1.1,3.4-2.7,4.5-4.6c1.1-2,1.7-4.2,1.7-6.6C678.8,581.5,678.3,579.3,677.2,577.3
		z M677.2,577.3c-1.1-1.9-2.6-3.5-4.5-4.6c-1.9-1.1-4-1.7-6.4-1.7c-2.4,0-4.5,0.6-6.4,1.7c-1.9,1.1-3.4,2.7-4.5,4.6
		c-1.1,1.9-1.7,4.2-1.7,6.6c0,2.4,0.6,4.6,1.7,6.6c1.1,2,2.6,3.5,4.5,4.6c1.9,1.1,4,1.7,6.4,1.7c2.4,0,4.5-0.6,6.4-1.7
		c1.9-1.1,3.4-2.7,4.5-4.6c1.1-2,1.7-4.2,1.7-6.6C678.8,581.5,678.3,579.3,677.2,577.3z M573.1,577c-0.9-1.9-2.2-3.4-3.9-4.5
		c-1.7-1.1-3.7-1.6-6-1.6c-2.3,0-4.4,0.6-6.2,1.7c-1.8,1.1-3.2,2.7-4.1,4.6c-0.7,1.3-1.1,2.8-1.3,4.3h22.7
		C574.1,579.9,573.7,578.4,573.1,577z M457.3,577.3c-1.1-2-2.6-3.5-4.5-4.6c-1.9-1.1-4-1.7-6.4-1.7s-4.6,0.6-6.5,1.7
		c-1.9,1.1-3.4,2.7-4.5,4.6c-1.1,2-1.6,4.2-1.6,6.7c0,2.5,0.5,4.7,1.6,6.6c1.1,2,2.6,3.5,4.5,4.6c1.9,1.1,4.1,1.7,6.5,1.7
		s4.5-0.6,6.4-1.7c1.9-1.1,3.4-2.7,4.5-4.6c1.1-1.9,1.6-4.1,1.6-6.6C458.9,581.5,458.4,579.3,457.3,577.3z M457.3,577.3
		c-1.1-2-2.6-3.5-4.5-4.6c-1.9-1.1-4-1.7-6.4-1.7s-4.6,0.6-6.5,1.7c-1.9,1.1-3.4,2.7-4.5,4.6c-1.1,2-1.6,4.2-1.6,6.7
		c0,2.5,0.5,4.7,1.6,6.6c1.1,2,2.6,3.5,4.5,4.6c1.9,1.1,4.1,1.7,6.5,1.7s4.5-0.6,6.4-1.7c1.9-1.1,3.4-2.7,4.5-4.6
		c1.1-1.9,1.6-4.1,1.6-6.6C458.9,581.5,458.4,579.3,457.3,577.3z M573.1,577c-0.9-1.9-2.2-3.4-3.9-4.5c-1.7-1.1-3.7-1.6-6-1.6
		c-2.3,0-4.4,0.6-6.2,1.7c-1.8,1.1-3.2,2.7-4.1,4.6c-0.7,1.3-1.1,2.8-1.3,4.3h22.7C574.1,579.9,573.7,578.4,573.1,577z M677.2,577.3
		c-1.1-1.9-2.6-3.5-4.5-4.6c-1.9-1.1-4-1.7-6.4-1.7c-2.4,0-4.5,0.6-6.4,1.7c-1.9,1.1-3.4,2.7-4.5,4.6c-1.1,1.9-1.7,4.2-1.7,6.6
		c0,2.4,0.6,4.6,1.7,6.6c1.1,2,2.6,3.5,4.5,4.6c1.9,1.1,4,1.7,6.4,1.7c2.4,0,4.5-0.6,6.4-1.7c1.9-1.1,3.4-2.7,4.5-4.6
		c1.1-2,1.7-4.2,1.7-6.6C678.8,581.5,678.3,579.3,677.2,577.3z M677.2,577.3c-1.1-1.9-2.6-3.5-4.5-4.6c-1.9-1.1-4-1.7-6.4-1.7
		c-2.4,0-4.5,0.6-6.4,1.7c-1.9,1.1-3.4,2.7-4.5,4.6c-1.1,1.9-1.7,4.2-1.7,6.6c0,2.4,0.6,4.6,1.7,6.6c1.1,2,2.6,3.5,4.5,4.6
		c1.9,1.1,4,1.7,6.4,1.7c2.4,0,4.5-0.6,6.4-1.7c1.9-1.1,3.4-2.7,4.5-4.6c1.1-2,1.7-4.2,1.7-6.6C678.8,581.5,678.3,579.3,677.2,577.3
		z M573.1,577c-0.9-1.9-2.2-3.4-3.9-4.5c-1.7-1.1-3.7-1.6-6-1.6c-2.3,0-4.4,0.6-6.2,1.7c-1.8,1.1-3.2,2.7-4.1,4.6
		c-0.7,1.3-1.1,2.8-1.3,4.3h22.7C574.1,579.9,573.7,578.4,573.1,577z M457.3,577.3c-1.1-2-2.6-3.5-4.5-4.6c-1.9-1.1-4-1.7-6.4-1.7
		s-4.6,0.6-6.5,1.7c-1.9,1.1-3.4,2.7-4.5,4.6c-1.1,2-1.6,4.2-1.6,6.7c0,2.5,0.5,4.7,1.6,6.6c1.1,2,2.6,3.5,4.5,4.6
		c1.9,1.1,4.1,1.7,6.5,1.7s4.5-0.6,6.4-1.7c1.9-1.1,3.4-2.7,4.5-4.6c1.1-1.9,1.6-4.1,1.6-6.6C458.9,581.5,458.4,579.3,457.3,577.3z
		 M457.3,577.3c-1.1-2-2.6-3.5-4.5-4.6c-1.9-1.1-4-1.7-6.4-1.7s-4.6,0.6-6.5,1.7c-1.9,1.1-3.4,2.7-4.5,4.6c-1.1,2-1.6,4.2-1.6,6.7
		c0,2.5,0.5,4.7,1.6,6.6c1.1,2,2.6,3.5,4.5,4.6c1.9,1.1,4.1,1.7,6.5,1.7s4.5-0.6,6.4-1.7c1.9-1.1,3.4-2.7,4.5-4.6
		c1.1-1.9,1.6-4.1,1.6-6.6C458.9,581.5,458.4,579.3,457.3,577.3z M573.1,577c-0.9-1.9-2.2-3.4-3.9-4.5c-1.7-1.1-3.7-1.6-6-1.6
		c-2.3,0-4.4,0.6-6.2,1.7c-1.8,1.1-3.2,2.7-4.1,4.6c-0.7,1.3-1.1,2.8-1.3,4.3h22.7C574.1,579.9,573.7,578.4,573.1,577z M677.2,577.3
		c-1.1-1.9-2.6-3.5-4.5-4.6c-1.9-1.1-4-1.7-6.4-1.7c-2.4,0-4.5,0.6-6.4,1.7c-1.9,1.1-3.4,2.7-4.5,4.6c-1.1,1.9-1.7,4.2-1.7,6.6
		c0,2.4,0.6,4.6,1.7,6.6c1.1,2,2.6,3.5,4.5,4.6c1.9,1.1,4,1.7,6.4,1.7c2.4,0,4.5-0.6,6.4-1.7c1.9-1.1,3.4-2.7,4.5-4.6
		c1.1-2,1.7-4.2,1.7-6.6C678.8,581.5,678.3,579.3,677.2,577.3z M784.4,577c-0.9-1.9-2.2-3.4-3.9-4.5c-1.7-1.1-3.7-1.6-6-1.6
		c-2.4,0-4.4,0.6-6.2,1.7c-1.8,1.1-3.2,2.7-4.1,4.6c-0.6,1.3-1.1,2.8-1.3,4.3h22.7C785.5,579.9,785.1,578.4,784.4,577z M784.4,577
		c-0.9-1.9-2.2-3.4-3.9-4.5c-1.7-1.1-3.7-1.6-6-1.6c-2.4,0-4.4,0.6-6.2,1.7c-1.8,1.1-3.2,2.7-4.1,4.6c-0.6,1.3-1.1,2.8-1.3,4.3h22.7
		C785.5,579.9,785.1,578.4,784.4,577z M677.2,577.3c-1.1-1.9-2.6-3.5-4.5-4.6c-1.9-1.1-4-1.7-6.4-1.7c-2.4,0-4.5,0.6-6.4,1.7
		c-1.9,1.1-3.4,2.7-4.5,4.6c-1.1,1.9-1.7,4.2-1.7,6.6c0,2.4,0.6,4.6,1.7,6.6c1.1,2,2.6,3.5,4.5,4.6c1.9,1.1,4,1.7,6.4,1.7
		c2.4,0,4.5-0.6,6.4-1.7c1.9-1.1,3.4-2.7,4.5-4.6c1.1-2,1.7-4.2,1.7-6.6C678.8,581.5,678.3,579.3,677.2,577.3z M573.1,577
		c-0.9-1.9-2.2-3.4-3.9-4.5c-1.7-1.1-3.7-1.6-6-1.6c-2.3,0-4.4,0.6-6.2,1.7c-1.8,1.1-3.2,2.7-4.1,4.6c-0.7,1.3-1.1,2.8-1.3,4.3h22.7
		C574.1,579.9,573.7,578.4,573.1,577z M457.3,577.3c-1.1-2-2.6-3.5-4.5-4.6c-1.9-1.1-4-1.7-6.4-1.7s-4.6,0.6-6.5,1.7
		c-1.9,1.1-3.4,2.7-4.5,4.6c-1.1,2-1.6,4.2-1.6,6.7c0,2.5,0.5,4.7,1.6,6.6c1.1,2,2.6,3.5,4.5,4.6c1.9,1.1,4.1,1.7,6.5,1.7
		s4.5-0.6,6.4-1.7c1.9-1.1,3.4-2.7,4.5-4.6c1.1-1.9,1.6-4.1,1.6-6.6C458.9,581.5,458.4,579.3,457.3,577.3z M875.4,404.4H326.5
		c-7.4,0-13.4,6-13.4,13.4v193.8c0,7.4,6,13.4,13.4,13.4h548.9c30.4,0,58-12.3,78-32.3c20-20,32.3-47.5,32.3-78
		C985.7,453.8,936.3,404.4,875.4,404.4z M371.5,430.9c1.4-1.3,3.1-1.9,5.1-1.9c1.8,0,3.5,0.6,4.9,1.9c1.4,1.3,2.2,3,2.2,5.2
		c0,2-0.7,3.7-2.1,5.1c-1.4,1.4-3.1,2.1-5.1,2.1c-1.9,0-3.6-0.7-5-2.1c-1.4-1.4-2.1-3.1-2.1-5.1
		C369.3,433.9,370.1,432.2,371.5,430.9z M383.4,456.2v83.7c0,2.1-0.6,3.8-1.9,5.1s-2.9,1.9-4.9,1.9c-2.1,0-3.8-0.6-5.1-1.9
		s-1.9-2.9-1.9-5.1v-83.7c0-2.1,0.6-3.8,1.9-5.1c1.2-1.2,2.9-1.9,5.1-1.9c2,0,3.7,0.6,4.9,1.9C382.8,452.3,383.4,454,383.4,456.2z
		 M417.4,598.5c0,0.7-0.2,1.3-0.6,1.7c-0.4,0.4-1,0.6-1.7,0.6c-0.7,0-1.3-0.2-1.7-0.6c-0.4-0.4-0.7-1-0.7-1.7v-17.8
		c0-2.9-0.8-5.3-2.3-7c-1.5-1.7-3.5-2.6-5.9-2.6c-2.6,0-4.7,0.8-6.3,2.6c-1.6,1.7-2.4,4-2.4,6.9v18c0,0.7-0.2,1.3-0.7,1.7
		c-0.4,0.4-1,0.6-1.7,0.6c-0.7,0-1.3-0.2-1.7-0.6c-0.5-0.4-0.7-1-0.7-1.7v-17.8c0-2.9-0.8-5.3-2.3-7c-1.5-1.7-3.5-2.6-5.9-2.6
		c-2.6,0-4.7,0.8-6.3,2.5c-1.7,1.7-2.5,3.9-2.5,6.5v18.3c0,0.7-0.2,1.3-0.7,1.7c-0.4,0.4-1,0.6-1.7,0.6c-0.7,0-1.3-0.2-1.8-0.6
		c-0.4-0.4-0.6-1-0.6-1.7v-29.1c0-0.7,0.2-1.3,0.6-1.7c0.4-0.5,1-0.7,1.8-0.7c0.7,0,1.3,0.2,1.7,0.7c0.4,0.5,0.7,1,0.7,1.7v1.4
		c0.8-1,1.8-1.8,2.8-2.4c1.9-1.1,4-1.7,6.5-1.7c2.4,0,4.6,0.6,6.5,1.7c1.6,1,3,2.4,4,4.1c1.1-1.7,2.5-3.1,4.3-4.1
		c2-1.1,4.3-1.7,6.9-1.7c2.4,0,4.6,0.6,6.5,1.7c1.9,1.2,3.4,2.8,4.4,4.9c1.1,2.1,1.6,4.6,1.6,7.5V598.5z M461.4,592.8
		c-1.5,2.6-3.6,4.7-6.1,6.1c-2.6,1.5-5.5,2.2-8.8,2.2s-6.3-0.8-8.9-2.2c-2.6-1.5-4.7-3.5-6.2-6.1c-1.5-2.6-2.2-5.6-2.2-8.9
		c0-3.3,0.8-6.3,2.2-8.9c1.5-2.6,3.5-4.6,6.2-6.1c2.6-1.5,5.6-2.2,8.9-2.2s6.2,0.8,8.8,2.2c2.6,1.5,4.6,3.5,6.1,6.1
		c1.5,2.6,2.3,5.6,2.3,8.9C463.6,587.3,462.9,590.2,461.4,592.8z M507.3,598.5c0,0.7-0.2,1.2-0.7,1.7c-0.4,0.5-1,0.7-1.7,0.7
		c-0.7,0-1.3-0.2-1.7-0.7c-0.4-0.5-0.7-1-0.7-1.7v-16.1c0-2.6-0.5-4.7-1.5-6.3c-1-1.6-2.3-2.9-4-3.7c-1.7-0.8-3.6-1.2-5.7-1.2
		c-2,0-3.8,0.4-5.5,1.2c-1.6,0.8-2.9,1.9-3.9,3.2c-1,1.4-1.4,2.9-1.4,4.7v18.3c0,0.7-0.2,1.3-0.6,1.7c-0.4,0.4-1,0.6-1.7,0.6
		c-0.7,0-1.3-0.2-1.8-0.6c-0.4-0.4-0.7-1-0.7-1.7v-29.1c0-0.8,0.2-1.3,0.7-1.8c0.4-0.4,1-0.7,1.8-0.7c0.7,0,1.3,0.2,1.7,0.7
		c0.4,0.4,0.6,1,0.6,1.8v2.1c1.1-1.3,2.4-2.3,4-3.1c2.2-1.2,4.6-1.8,7.3-1.8c2.9,0,5.6,0.6,7.9,1.8c2.3,1.2,4.1,3,5.5,5.4
		c1.3,2.4,2,5.2,2,8.6V598.5z M537.3,600.2c-0.5,0.4-1.1,0.6-1.9,0.6h-1.3c-2.2,0-4.1-0.5-5.9-1.5c-1.7-1-3.1-2.5-4.1-4.2
		s-1.5-3.8-1.5-6.2v-16.6h-4c-0.6,0-1.1-0.2-1.5-0.6c-0.4-0.4-0.6-0.9-0.6-1.5c0-0.6,0.2-1.1,0.6-1.5s0.9-0.6,1.5-0.6h4v-9.6
		c0-0.7,0.2-1.3,0.7-1.7c0.4-0.5,1-0.7,1.7-0.7c0.7,0,1.3,0.2,1.7,0.7c0.5,0.5,0.7,1,0.7,1.7v9.6h7c0.6,0,1.1,0.2,1.6,0.6
		c0.4,0.4,0.6,0.9,0.6,1.5c0,0.6-0.2,1.1-0.6,1.5c-0.4,0.4-0.9,0.6-1.6,0.6h-7v16.6c0,2.1,0.6,3.8,1.9,5.2s2.8,2,4.8,2h1.7
		c0.6,0,1.2,0.2,1.6,0.7c0.4,0.5,0.6,1,0.6,1.7C538.1,599.2,537.8,599.8,537.3,600.2z M578.2,584.9c-0.4,0.4-1,0.6-1.6,0.6h-25
		c0.2,1.9,0.7,3.6,1.6,5.2c1.1,1.9,2.6,3.5,4.5,4.6c1.9,1.1,4.1,1.7,6.6,1.7c1.5,0,3-0.3,4.5-0.8c1.5-0.5,2.7-1.2,3.6-2
		c0.5-0.4,1-0.6,1.6-0.6c0.6,0,1.1,0.1,1.5,0.5c0.5,0.5,0.8,1,0.8,1.6c0,0.6-0.2,1.1-0.7,1.5c-1.4,1.2-3.1,2.1-5.2,2.9
		c-2.1,0.8-4.1,1.1-6.1,1.1c-3.3,0-6.3-0.7-8.9-2.2c-2.6-1.5-4.6-3.5-6.1-6.1c-1.5-2.6-2.2-5.6-2.2-8.9c0-3.4,0.7-6.4,2.1-9
		c1.4-2.6,3.3-4.6,5.7-6.1c2.4-1.5,5.2-2.2,8.4-2.2c3.1,0,5.9,0.7,8.2,2.1c2.3,1.4,4.1,3.4,5.4,5.9c1.3,2.5,1.9,5.4,1.9,8.6
		C578.8,584,578.6,584.5,578.2,584.9z M638.6,574.2c-0.1,0.6-0.5,1-1.1,1.5c-0.5,0.3-1,0.5-1.5,0.3c-0.6-0.1-1.1-0.4-1.5-0.9
		c-2.4-2.7-5.4-4.1-9.1-4.1c-2.3,0-4.3,0.6-6.1,1.7c-1.8,1.1-3.1,2.6-4.1,4.6c-1,1.9-1.5,4.2-1.5,6.7c0,2.5,0.5,4.7,1.5,6.6
		c1,2,2.5,3.5,4.3,4.6c1.9,1.1,4,1.7,6.4,1.7c1.6,0,3.1-0.2,4.4-0.7c1.3-0.4,2.5-1.1,3.6-2c0.5-0.4,1-0.6,1.5-0.7
		c0.5,0,1,0.1,1.5,0.5c0.5,0.5,0.8,1,0.8,1.6c0.1,0.6-0.1,1.1-0.6,1.5c-3,2.8-6.8,4.2-11.3,4.2c-3.3,0-6.2-0.8-8.7-2.3
		c-2.5-1.5-4.5-3.6-6-6.2c-1.5-2.6-2.2-5.5-2.2-8.8c0-3.3,0.7-6.3,2.1-8.9c1.4-2.6,3.3-4.7,5.8-6.2c2.4-1.5,5.2-2.3,8.4-2.3
		c2.5,0,4.8,0.5,7,1.5c2.1,1,4,2.5,5.6,4.5C638.5,573.1,638.7,573.6,638.6,574.2z M683.5,598.5c0,0.7-0.2,1.3-0.7,1.7
		c-0.5,0.4-1,0.6-1.7,0.6c-0.7,0-1.3-0.2-1.7-0.6c-0.5-0.4-0.7-1-0.7-1.7v-3.8c-1.3,1.8-2.9,3.2-4.8,4.4c-2.4,1.4-5.1,2.1-8.1,2.1
		c-3.2,0-6-0.8-8.6-2.3c-2.5-1.5-4.5-3.6-6-6.2c-1.5-2.6-2.2-5.5-2.2-8.8c0-3.3,0.8-6.3,2.3-8.9c1.5-2.6,3.6-4.7,6.2-6.2
		c2.6-1.5,5.5-2.3,8.8-2.3c3.3,0,6.2,0.8,8.8,2.3c2.6,1.5,4.6,3.6,6.1,6.2c1.5,2.6,2.3,5.6,2.3,8.9V598.5z M719.3,596.5
		c-1.1,1.5-2.7,2.6-4.7,3.4c-2,0.8-4.3,1.2-6.9,1.2c-2.4,0-4.9-0.4-7.3-1.2c-2.4-0.8-4.3-2.1-5.8-3.7c-0.5-0.5-0.6-1-0.6-1.7
		c0.1-0.6,0.4-1.2,0.9-1.6c0.6-0.4,1.2-0.6,1.8-0.5c0.6,0.1,1.1,0.4,1.6,0.8c1,1.2,2.3,2.1,3.9,2.7c1.6,0.6,3.4,0.9,5.4,0.9
		c3,0,5.3-0.5,6.6-1.6c1.4-1.1,2.1-2.3,2.1-3.8c0-1.5-0.7-2.7-2.1-3.7c-1.4-1-3.7-1.7-6.9-2.3c-4.2-0.7-7.2-1.8-9.2-3.5
		s-2.9-3.6-2.9-5.9c0-2.1,0.6-3.9,1.7-5.3c1.1-1.4,2.6-2.5,4.5-3.2c1.9-0.7,3.9-1.1,6.1-1.1c2.8,0,5.2,0.5,7.2,1.4
		c2,1,3.6,2.2,4.9,3.8c0.4,0.5,0.6,1.1,0.5,1.7c-0.1,0.6-0.4,1-1,1.4c-0.5,0.3-1.1,0.4-1.7,0.3c-0.6-0.1-1.2-0.4-1.6-0.9
		c-1-1.2-2.2-2.1-3.6-2.6c-1.4-0.6-2.9-0.8-4.7-0.8c-2.3,0-4.1,0.5-5.5,1.4c-1.4,0.9-2,2.1-2,3.5c0,1,0.2,1.8,0.8,2.5
		c0.5,0.7,1.4,1.3,2.7,1.9c1.3,0.5,3,1,5.3,1.4c3.1,0.5,5.5,1.2,7.3,2.2c1.8,1,3.1,2.1,3.8,3.4c0.8,1.3,1.1,2.7,1.1,4.2
		C721,593.4,720.4,595.1,719.3,596.5z M722.7,539.8c0,2.1-0.6,3.8-1.9,5.1c-1.2,1.2-2.9,1.9-4.9,1.9c-2.1,0-3.8-0.6-5.1-1.9
		c-1.2-1.2-1.9-2.9-1.9-5.1v-50.5c0-16.9-13.7-30.6-30.6-30.6c-15.7,0-28.6,11.8-30.4,27.1v54c0,2.1-0.6,3.8-1.9,5.1
		s-2.9,1.9-4.9,1.9c-2.1,0-3.8-0.6-5.1-1.9s-1.9-2.9-1.9-5.1v-50.5c0-16.9-13.7-30.6-30.6-30.6c-15.7,0-28.6,11.8-30.4,27.1v54
		c0,2.1-0.6,3.8-1.9,5.1s-2.9,1.9-4.9,1.9c-2.1,0-3.8-0.6-5.1-1.9s-1.9-2.9-1.9-5.1v-50.5c0-16.9-13.7-30.6-30.6-30.6
		c-15.7,0-28.6,11.8-30.4,27.1v54c0,2.1-0.6,3.8-1.9,5.1s-2.9,1.9-4.9,1.9c-2.1,0-3.8-0.6-5.1-1.9s-1.9-2.9-1.9-5.1v-50.5
		c0-16.8-13.7-30.5-30.5-30.5c-16.8,0-30.5,13.7-30.5,30.5v50.5c0,2.1-0.6,3.8-1.9,5.1s-2.9,1.9-4.9,1.9c-2.1,0-3.8-0.6-5.1-1.9
		s-1.9-2.9-1.9-5.1v-50.5c0-12.6,5.3-23.9,13.7-32c8-7.6,18.7-12.2,30.5-12.2c11.8,0,22.6,4.7,30.5,12.2c2.6,2.5,4.9,5.3,6.9,8.4
		c1.9-3.1,4.2-5.9,6.9-8.4c7.9-7.6,18.7-12.2,30.5-12.2c11.9,0,22.6,4.7,30.5,12.2c2.6,2.5,4.9,5.3,6.9,8.4c1.9-3.1,4.2-5.9,6.9-8.4
		c7.9-7.6,18.7-12.2,30.5-12.2c11.9,0,22.6,4.7,30.5,12.2c2.6,2.5,4.9,5.3,6.9,8.4c1.9-3,4.2-5.8,6.8-8.3
		c7.9-7.5,18.7-12.2,30.5-12.2c11.8,0,22.6,4.7,30.5,12.2c8.4,8,13.7,19.3,13.7,31.9V539.8z M748.6,600.2c-0.5,0.4-1.1,0.6-1.9,0.6
		h-1.3c-2.2,0-4.1-0.5-5.9-1.5c-1.7-1-3.1-2.5-4.1-4.2s-1.5-3.8-1.5-6.2v-16.6h-4c-0.6,0-1.1-0.2-1.6-0.6c-0.4-0.4-0.6-0.9-0.6-1.5
		c0-0.6,0.2-1.1,0.6-1.5c0.4-0.4,0.9-0.6,1.6-0.6h4v-9.6c0-0.7,0.2-1.3,0.6-1.7c0.4-0.5,1-0.7,1.7-0.7c0.7,0,1.3,0.2,1.7,0.7
		c0.5,0.5,0.7,1,0.7,1.7v9.6h7c0.6,0,1.1,0.2,1.5,0.6c0.4,0.4,0.6,0.9,0.6,1.5c0,0.6-0.2,1.1-0.6,1.5c-0.4,0.4-0.9,0.6-1.5,0.6h-7
		v16.6c0,2.1,0.6,3.8,1.8,5.2c1.2,1.3,2.8,2,4.8,2h1.7c0.7,0,1.2,0.2,1.6,0.7c0.4,0.5,0.6,1,0.6,1.7
		C749.4,599.2,749.1,599.8,748.6,600.2z M789.5,584.9c-0.4,0.4-1,0.6-1.6,0.6h-25c0.2,1.9,0.7,3.6,1.6,5.2c1.1,1.9,2.6,3.5,4.5,4.6
		c1.9,1.1,4.1,1.7,6.6,1.7c1.5,0,3-0.3,4.5-0.8c1.5-0.5,2.7-1.2,3.6-2c0.5-0.4,1-0.6,1.6-0.6c0.6,0,1.1,0.1,1.5,0.5
		c0.5,0.5,0.8,1,0.8,1.6c0,0.6-0.2,1.1-0.7,1.5c-1.4,1.2-3.1,2.1-5.2,2.9c-2.1,0.8-4.1,1.1-6.1,1.1c-3.3,0-6.3-0.7-8.9-2.2
		c-2.6-1.5-4.6-3.5-6.1-6.1c-1.5-2.6-2.2-5.6-2.2-8.9c0-3.4,0.7-6.4,2.1-9c1.4-2.6,3.3-4.6,5.7-6.1c2.4-1.5,5.2-2.2,8.4-2.2
		c3.1,0,5.9,0.7,8.2,2.1c2.3,1.4,4.1,3.4,5.4,5.9c1.3,2.5,1.9,5.4,1.9,8.6C790.1,584,789.9,584.5,789.5,584.9z M770.3,540.1
		c-7.4-4.4-13.3-10.5-17.7-18.2c-4.3-7.7-6.5-16.3-6.5-26c0-9.8,2.2-18.5,6.7-26.2c4.4-7.7,10.5-13.8,18.2-18.2
		c7.7-4.4,16.3-6.7,26-6.7s18.3,2.2,25.9,6.7c7.6,4.5,13.7,10.5,18.1,18.2c4.4,7.7,6.7,16.4,6.9,26.2v43c0,2.1-0.7,3.8-2,5
		c-1.3,1.3-3,1.9-5.1,1.9c-2.1,0-3.8-0.7-5.1-1.9c-0.8-0.8-1.3-1.7-1.6-2.7c-0.2-0.7-0.4-1.5-0.4-2.3v-48.7c-0.6-5-2.1-9.7-4.5-13.9
		c-3.2-5.7-7.6-10.3-13.2-13.6c-5.5-3.4-11.9-5-18.9-5c-6.9,0-13.2,1.7-18.8,5c-5.6,3.4-10.1,7.9-13.4,13.6
		c-3.3,5.7-4.9,12.3-4.9,19.6c0,7.2,1.7,13.7,4.9,19.5c3.3,5.8,7.8,10.3,13.4,13.6c5.6,3.3,11.9,4.9,18.8,4.9
		c7.1,0,13.4-1.6,18.9-4.9c0.1,0,0.1,0,0.2-0.1c0.1,0,0.1-0.1,0.2-0.2c1.2-0.7,2.6-0.8,3.9-0.6c1.7,0.3,3.2,1.3,4.1,2.9
		c1.5,2.7,0.6,6.1-2.1,7.8l0.1,0c-0.3,0.2-2.7,1.6-2.9,1.8c-7,4.1-15,6.1-23.9,6.1C786.1,546.8,777.7,544.5,770.3,540.1z
		 M811.3,600.2c-0.5,0.4-1.2,0.6-2,0.6h-0.8c-1.6,0-3.1-0.4-4.4-1.4c-1.3-0.9-2.3-2.2-3-3.8c-0.7-1.6-1.1-3.5-1.1-5.6v-35.3
		c0-0.7,0.2-1.3,0.7-1.7c0.4-0.4,1-0.7,1.7-0.7s1.3,0.2,1.7,0.7c0.4,0.4,0.7,1,0.7,1.7v35.3c0,1.8,0.4,3.2,1.1,4.3
		c0.7,1.1,1.6,1.7,2.8,1.7h1.6c0.6,0,1.1,0.2,1.5,0.6c0.4,0.4,0.6,1,0.6,1.7C812.1,599.2,811.8,599.8,811.3,600.2z M850.2,592.8
		c-1.5,2.6-3.6,4.7-6.1,6.1c-2.6,1.5-5.5,2.2-8.8,2.2c-3.3,0-6.3-0.8-8.9-2.2c-2.6-1.5-4.7-3.5-6.1-6.1c-1.5-2.6-2.2-5.6-2.2-8.9
		c0-3.3,0.7-6.3,2.2-8.9c1.5-2.6,3.5-4.6,6.1-6.1c2.6-1.5,5.6-2.2,8.9-2.2c3.3,0,6.3,0.8,8.8,2.2c2.6,1.5,4.6,3.5,6.1,6.1
		c1.5,2.6,2.2,5.6,2.3,8.9C852.4,587.3,851.7,590.2,850.2,592.8z M841.6,572.7c-1.9-1.1-4-1.7-6.5-1.7c-2.4,0-4.5,0.6-6.4,1.7
		c-1.9,1.1-3.4,2.7-4.5,4.6c-1.1,2-1.6,4.2-1.6,6.7c0,2.5,0.6,4.7,1.6,6.6c1.1,2,2.6,3.5,4.5,4.6c1.9,1.1,4.1,1.7,6.4,1.7
		c2.4,0,4.6-0.6,6.5-1.7c1.9-1.1,3.4-2.7,4.5-4.6c1.1-1.9,1.6-4.1,1.6-6.6c0-2.5-0.5-4.7-1.6-6.7C845,575.3,843.5,573.8,841.6,572.7
		z M780.5,572.6c-1.7-1.1-3.7-1.6-6-1.6c-2.4,0-4.4,0.6-6.2,1.7c-1.8,1.1-3.2,2.7-4.1,4.6c-0.6,1.3-1.1,2.8-1.3,4.3h22.7
		c-0.2-1.6-0.6-3.2-1.2-4.5C783.5,575.1,782.2,573.6,780.5,572.6z M672.7,572.7c-1.9-1.1-4-1.7-6.4-1.7c-2.4,0-4.5,0.6-6.4,1.7
		c-1.9,1.1-3.4,2.7-4.5,4.6c-1.1,1.9-1.7,4.2-1.7,6.6c0,2.4,0.6,4.6,1.7,6.6c1.1,2,2.6,3.5,4.5,4.6c1.9,1.1,4,1.7,6.4,1.7
		c2.4,0,4.5-0.6,6.4-1.7c1.9-1.1,3.4-2.7,4.5-4.6c1.1-2,1.7-4.2,1.7-6.6c0-2.5-0.6-4.7-1.7-6.6C676.1,575.4,674.6,573.8,672.7,572.7
		z M569.2,572.6c-1.7-1.1-3.7-1.6-6-1.6c-2.3,0-4.4,0.6-6.2,1.7c-1.8,1.1-3.2,2.7-4.1,4.6c-0.7,1.3-1.1,2.8-1.3,4.3h22.7
		c-0.2-1.6-0.6-3.1-1.2-4.5C572.2,575.1,570.9,573.6,569.2,572.6z M452.8,572.7c-1.9-1.1-4-1.7-6.4-1.7s-4.6,0.6-6.5,1.7
		c-1.9,1.1-3.4,2.7-4.5,4.6c-1.1,2-1.6,4.2-1.6,6.7c0,2.5,0.5,4.7,1.6,6.6c1.1,2,2.6,3.5,4.5,4.6c1.9,1.1,4.1,1.7,6.5,1.7
		s4.5-0.6,6.4-1.7c1.9-1.1,3.4-2.7,4.5-4.6c1.1-1.9,1.6-4.1,1.6-6.6c0-2.5-0.5-4.7-1.6-6.7C456.2,575.3,454.8,573.8,452.8,572.7z
		 M457.3,577.3c-1.1-2-2.6-3.5-4.5-4.6c-1.9-1.1-4-1.7-6.4-1.7s-4.6,0.6-6.5,1.7c-1.9,1.1-3.4,2.7-4.5,4.6c-1.1,2-1.6,4.2-1.6,6.7
		c0,2.5,0.5,4.7,1.6,6.6c1.1,2,2.6,3.5,4.5,4.6c1.9,1.1,4.1,1.7,6.5,1.7s4.5-0.6,6.4-1.7c1.9-1.1,3.4-2.7,4.5-4.6
		c1.1-1.9,1.6-4.1,1.6-6.6C458.9,581.5,458.4,579.3,457.3,577.3z M573.1,577c-0.9-1.9-2.2-3.4-3.9-4.5c-1.7-1.1-3.7-1.6-6-1.6
		c-2.3,0-4.4,0.6-6.2,1.7c-1.8,1.1-3.2,2.7-4.1,4.6c-0.7,1.3-1.1,2.8-1.3,4.3h22.7C574.1,579.9,573.7,578.4,573.1,577z M677.2,577.3
		c-1.1-1.9-2.6-3.5-4.5-4.6c-1.9-1.1-4-1.7-6.4-1.7c-2.4,0-4.5,0.6-6.4,1.7c-1.9,1.1-3.4,2.7-4.5,4.6c-1.1,1.9-1.7,4.2-1.7,6.6
		c0,2.4,0.6,4.6,1.7,6.6c1.1,2,2.6,3.5,4.5,4.6c1.9,1.1,4,1.7,6.4,1.7c2.4,0,4.5-0.6,6.4-1.7c1.9-1.1,3.4-2.7,4.5-4.6
		c1.1-2,1.7-4.2,1.7-6.6C678.8,581.5,678.3,579.3,677.2,577.3z M784.4,577c-0.9-1.9-2.2-3.4-3.9-4.5c-1.7-1.1-3.7-1.6-6-1.6
		c-2.4,0-4.4,0.6-6.2,1.7c-1.8,1.1-3.2,2.7-4.1,4.6c-0.6,1.3-1.1,2.8-1.3,4.3h22.7C785.5,579.9,785.1,578.4,784.4,577z M784.4,577
		c-0.9-1.9-2.2-3.4-3.9-4.5c-1.7-1.1-3.7-1.6-6-1.6c-2.4,0-4.4,0.6-6.2,1.7c-1.8,1.1-3.2,2.7-4.1,4.6c-0.6,1.3-1.1,2.8-1.3,4.3h22.7
		C785.5,579.9,785.1,578.4,784.4,577z M677.2,577.3c-1.1-1.9-2.6-3.5-4.5-4.6c-1.9-1.1-4-1.7-6.4-1.7c-2.4,0-4.5,0.6-6.4,1.7
		c-1.9,1.1-3.4,2.7-4.5,4.6c-1.1,1.9-1.7,4.2-1.7,6.6c0,2.4,0.6,4.6,1.7,6.6c1.1,2,2.6,3.5,4.5,4.6c1.9,1.1,4,1.7,6.4,1.7
		c2.4,0,4.5-0.6,6.4-1.7c1.9-1.1,3.4-2.7,4.5-4.6c1.1-2,1.7-4.2,1.7-6.6C678.8,581.5,678.3,579.3,677.2,577.3z M573.1,577
		c-0.9-1.9-2.2-3.4-3.9-4.5c-1.7-1.1-3.7-1.6-6-1.6c-2.3,0-4.4,0.6-6.2,1.7c-1.8,1.1-3.2,2.7-4.1,4.6c-0.7,1.3-1.1,2.8-1.3,4.3h22.7
		C574.1,579.9,573.7,578.4,573.1,577z M457.3,577.3c-1.1-2-2.6-3.5-4.5-4.6c-1.9-1.1-4-1.7-6.4-1.7s-4.6,0.6-6.5,1.7
		c-1.9,1.1-3.4,2.7-4.5,4.6c-1.1,2-1.6,4.2-1.6,6.7c0,2.5,0.5,4.7,1.6,6.6c1.1,2,2.6,3.5,4.5,4.6c1.9,1.1,4.1,1.7,6.5,1.7
		s4.5-0.6,6.4-1.7c1.9-1.1,3.4-2.7,4.5-4.6c1.1-1.9,1.6-4.1,1.6-6.6C458.9,581.5,458.4,579.3,457.3,577.3z M457.3,577.3
		c-1.1-2-2.6-3.5-4.5-4.6c-1.9-1.1-4-1.7-6.4-1.7s-4.6,0.6-6.5,1.7c-1.9,1.1-3.4,2.7-4.5,4.6c-1.1,2-1.6,4.2-1.6,6.7
		c0,2.5,0.5,4.7,1.6,6.6c1.1,2,2.6,3.5,4.5,4.6c1.9,1.1,4.1,1.7,6.5,1.7s4.5-0.6,6.4-1.7c1.9-1.1,3.4-2.7,4.5-4.6
		c1.1-1.9,1.6-4.1,1.6-6.6C458.9,581.5,458.4,579.3,457.3,577.3z M573.1,577c-0.9-1.9-2.2-3.4-3.9-4.5c-1.7-1.1-3.7-1.6-6-1.6
		c-2.3,0-4.4,0.6-6.2,1.7c-1.8,1.1-3.2,2.7-4.1,4.6c-0.7,1.3-1.1,2.8-1.3,4.3h22.7C574.1,579.9,573.7,578.4,573.1,577z M677.2,577.3
		c-1.1-1.9-2.6-3.5-4.5-4.6c-1.9-1.1-4-1.7-6.4-1.7c-2.4,0-4.5,0.6-6.4,1.7c-1.9,1.1-3.4,2.7-4.5,4.6c-1.1,1.9-1.7,4.2-1.7,6.6
		c0,2.4,0.6,4.6,1.7,6.6c1.1,2,2.6,3.5,4.5,4.6c1.9,1.1,4,1.7,6.4,1.7c2.4,0,4.5-0.6,6.4-1.7c1.9-1.1,3.4-2.7,4.5-4.6
		c1.1-2,1.7-4.2,1.7-6.6C678.8,581.5,678.3,579.3,677.2,577.3z M677.2,577.3c-1.1-1.9-2.6-3.5-4.5-4.6c-1.9-1.1-4-1.7-6.4-1.7
		c-2.4,0-4.5,0.6-6.4,1.7c-1.9,1.1-3.4,2.7-4.5,4.6c-1.1,1.9-1.7,4.2-1.7,6.6c0,2.4,0.6,4.6,1.7,6.6c1.1,2,2.6,3.5,4.5,4.6
		c1.9,1.1,4,1.7,6.4,1.7c2.4,0,4.5-0.6,6.4-1.7c1.9-1.1,3.4-2.7,4.5-4.6c1.1-2,1.7-4.2,1.7-6.6C678.8,581.5,678.3,579.3,677.2,577.3
		z M573.1,577c-0.9-1.9-2.2-3.4-3.9-4.5c-1.7-1.1-3.7-1.6-6-1.6c-2.3,0-4.4,0.6-6.2,1.7c-1.8,1.1-3.2,2.7-4.1,4.6
		c-0.7,1.3-1.1,2.8-1.3,4.3h22.7C574.1,579.9,573.7,578.4,573.1,577z M457.3,577.3c-1.1-2-2.6-3.5-4.5-4.6c-1.9-1.1-4-1.7-6.4-1.7
		s-4.6,0.6-6.5,1.7c-1.9,1.1-3.4,2.7-4.5,4.6c-1.1,2-1.6,4.2-1.6,6.7c0,2.5,0.5,4.7,1.6,6.6c1.1,2,2.6,3.5,4.5,4.6
		c1.9,1.1,4.1,1.7,6.5,1.7s4.5-0.6,6.4-1.7c1.9-1.1,3.4-2.7,4.5-4.6c1.1-1.9,1.6-4.1,1.6-6.6C458.9,581.5,458.4,579.3,457.3,577.3z
		 M457.3,577.3c-1.1-2-2.6-3.5-4.5-4.6c-1.9-1.1-4-1.7-6.4-1.7s-4.6,0.6-6.5,1.7c-1.9,1.1-3.4,2.7-4.5,4.6c-1.1,2-1.6,4.2-1.6,6.7
		c0,2.5,0.5,4.7,1.6,6.6c1.1,2,2.6,3.5,4.5,4.6c1.9,1.1,4.1,1.7,6.5,1.7s4.5-0.6,6.4-1.7c1.9-1.1,3.4-2.7,4.5-4.6
		c1.1-1.9,1.6-4.1,1.6-6.6C458.9,581.5,458.4,579.3,457.3,577.3z M573.1,577c-0.9-1.9-2.2-3.4-3.9-4.5c-1.7-1.1-3.7-1.6-6-1.6
		c-2.3,0-4.4,0.6-6.2,1.7c-1.8,1.1-3.2,2.7-4.1,4.6c-0.7,1.3-1.1,2.8-1.3,4.3h22.7C574.1,579.9,573.7,578.4,573.1,577z M677.2,577.3
		c-1.1-1.9-2.6-3.5-4.5-4.6c-1.9-1.1-4-1.7-6.4-1.7c-2.4,0-4.5,0.6-6.4,1.7c-1.9,1.1-3.4,2.7-4.5,4.6c-1.1,1.9-1.7,4.2-1.7,6.6
		c0,2.4,0.6,4.6,1.7,6.6c1.1,2,2.6,3.5,4.5,4.6c1.9,1.1,4,1.7,6.4,1.7c2.4,0,4.5-0.6,6.4-1.7c1.9-1.1,3.4-2.7,4.5-4.6
		c1.1-2,1.7-4.2,1.7-6.6C678.8,581.5,678.3,579.3,677.2,577.3z M677.2,577.3c-1.1-1.9-2.6-3.5-4.5-4.6c-1.9-1.1-4-1.7-6.4-1.7
		c-2.4,0-4.5,0.6-6.4,1.7c-1.9,1.1-3.4,2.7-4.5,4.6c-1.1,1.9-1.7,4.2-1.7,6.6c0,2.4,0.6,4.6,1.7,6.6c1.1,2,2.6,3.5,4.5,4.6
		c1.9,1.1,4,1.7,6.4,1.7c2.4,0,4.5-0.6,6.4-1.7c1.9-1.1,3.4-2.7,4.5-4.6c1.1-2,1.7-4.2,1.7-6.6C678.8,581.5,678.3,579.3,677.2,577.3
		z M573.1,577c-0.9-1.9-2.2-3.4-3.9-4.5c-1.7-1.1-3.7-1.6-6-1.6c-2.3,0-4.4,0.6-6.2,1.7c-1.8,1.1-3.2,2.7-4.1,4.6
		c-0.7,1.3-1.1,2.8-1.3,4.3h22.7C574.1,579.9,573.7,578.4,573.1,577z M457.3,577.3c-1.1-2-2.6-3.5-4.5-4.6c-1.9-1.1-4-1.7-6.4-1.7
		s-4.6,0.6-6.5,1.7c-1.9,1.1-3.4,2.7-4.5,4.6c-1.1,2-1.6,4.2-1.6,6.7c0,2.5,0.5,4.7,1.6,6.6c1.1,2,2.6,3.5,4.5,4.6
		c1.9,1.1,4.1,1.7,6.5,1.7s4.5-0.6,6.4-1.7c1.9-1.1,3.4-2.7,4.5-4.6c1.1-1.9,1.6-4.1,1.6-6.6C458.9,581.5,458.4,579.3,457.3,577.3z
		 M457.3,577.3c-1.1-2-2.6-3.5-4.5-4.6c-1.9-1.1-4-1.7-6.4-1.7s-4.6,0.6-6.5,1.7c-1.9,1.1-3.4,2.7-4.5,4.6c-1.1,2-1.6,4.2-1.6,6.7
		c0,2.5,0.5,4.7,1.6,6.6c1.1,2,2.6,3.5,4.5,4.6c1.9,1.1,4.1,1.7,6.5,1.7s4.5-0.6,6.4-1.7c1.9-1.1,3.4-2.7,4.5-4.6
		c1.1-1.9,1.6-4.1,1.6-6.6C458.9,581.5,458.4,579.3,457.3,577.3z M573.1,577c-0.9-1.9-2.2-3.4-3.9-4.5c-1.7-1.1-3.7-1.6-6-1.6
		c-2.3,0-4.4,0.6-6.2,1.7c-1.8,1.1-3.2,2.7-4.1,4.6c-0.7,1.3-1.1,2.8-1.3,4.3h22.7C574.1,579.9,573.7,578.4,573.1,577z M573.1,577
		c-0.9-1.9-2.2-3.4-3.9-4.5c-1.7-1.1-3.7-1.6-6-1.6c-2.3,0-4.4,0.6-6.2,1.7c-1.8,1.1-3.2,2.7-4.1,4.6c-0.7,1.3-1.1,2.8-1.3,4.3h22.7
		C574.1,579.9,573.7,578.4,573.1,577z M457.3,577.3c-1.1-2-2.6-3.5-4.5-4.6c-1.9-1.1-4-1.7-6.4-1.7s-4.6,0.6-6.5,1.7
		c-1.9,1.1-3.4,2.7-4.5,4.6c-1.1,2-1.6,4.2-1.6,6.7c0,2.5,0.5,4.7,1.6,6.6c1.1,2,2.6,3.5,4.5,4.6c1.9,1.1,4.1,1.7,6.5,1.7
		s4.5-0.6,6.4-1.7c1.9-1.1,3.4-2.7,4.5-4.6c1.1-1.9,1.6-4.1,1.6-6.6C458.9,581.5,458.4,579.3,457.3,577.3z M457.3,577.3
		c-1.1-2-2.6-3.5-4.5-4.6c-1.9-1.1-4-1.7-6.4-1.7s-4.6,0.6-6.5,1.7c-1.9,1.1-3.4,2.7-4.5,4.6c-1.1,2-1.6,4.2-1.6,6.7
		c0,2.5,0.5,4.7,1.6,6.6c1.1,2,2.6,3.5,4.5,4.6c1.9,1.1,4.1,1.7,6.5,1.7s4.5-0.6,6.4-1.7c1.9-1.1,3.4-2.7,4.5-4.6
		c1.1-1.9,1.6-4.1,1.6-6.6C458.9,581.5,458.4,579.3,457.3,577.3z M457.3,577.3c-1.1-2-2.6-3.5-4.5-4.6c-1.9-1.1-4-1.7-6.4-1.7
		s-4.6,0.6-6.5,1.7c-1.9,1.1-3.4,2.7-4.5,4.6c-1.1,2-1.6,4.2-1.6,6.7c0,2.5,0.5,4.7,1.6,6.6c1.1,2,2.6,3.5,4.5,4.6
		c1.9,1.1,4.1,1.7,6.5,1.7s4.5-0.6,6.4-1.7c1.9-1.1,3.4-2.7,4.5-4.6c1.1-1.9,1.6-4.1,1.6-6.6C458.9,581.5,458.4,579.3,457.3,577.3z
		 M457.3,577.3c-1.1-2-2.6-3.5-4.5-4.6c-1.9-1.1-4-1.7-6.4-1.7s-4.6,0.6-6.5,1.7c-1.9,1.1-3.4,2.7-4.5,4.6c-1.1,2-1.6,4.2-1.6,6.7
		c0,2.5,0.5,4.7,1.6,6.6c1.1,2,2.6,3.5,4.5,4.6c1.9,1.1,4.1,1.7,6.5,1.7s4.5-0.6,6.4-1.7c1.9-1.1,3.4-2.7,4.5-4.6
		c1.1-1.9,1.6-4.1,1.6-6.6C458.9,581.5,458.4,579.3,457.3,577.3z M457.3,577.3c-1.1-2-2.6-3.5-4.5-4.6c-1.9-1.1-4-1.7-6.4-1.7
		s-4.6,0.6-6.5,1.7c-1.9,1.1-3.4,2.7-4.5,4.6c-1.1,2-1.6,4.2-1.6,6.7c0,2.5,0.5,4.7,1.6,6.6c1.1,2,2.6,3.5,4.5,4.6
		c1.9,1.1,4.1,1.7,6.5,1.7s4.5-0.6,6.4-1.7c1.9-1.1,3.4-2.7,4.5-4.6c1.1-1.9,1.6-4.1,1.6-6.6C458.9,581.5,458.4,579.3,457.3,577.3z
		 M457.3,577.3c-1.1-2-2.6-3.5-4.5-4.6c-1.9-1.1-4-1.7-6.4-1.7s-4.6,0.6-6.5,1.7c-1.9,1.1-3.4,2.7-4.5,4.6c-1.1,2-1.6,4.2-1.6,6.7
		c0,2.5,0.5,4.7,1.6,6.6c1.1,2,2.6,3.5,4.5,4.6c1.9,1.1,4.1,1.7,6.5,1.7s4.5-0.6,6.4-1.7c1.9-1.1,3.4-2.7,4.5-4.6
		c1.1-1.9,1.6-4.1,1.6-6.6C458.9,581.5,458.4,579.3,457.3,577.3z M457.3,577.3c-1.1-2-2.6-3.5-4.5-4.6c-1.9-1.1-4-1.7-6.4-1.7
		s-4.6,0.6-6.5,1.7c-1.9,1.1-3.4,2.7-4.5,4.6c-1.1,2-1.6,4.2-1.6,6.7c0,2.5,0.5,4.7,1.6,6.6c1.1,2,2.6,3.5,4.5,4.6
		c1.9,1.1,4.1,1.7,6.5,1.7s4.5-0.6,6.4-1.7c1.9-1.1,3.4-2.7,4.5-4.6c1.1-1.9,1.6-4.1,1.6-6.6C458.9,581.5,458.4,579.3,457.3,577.3z"
		/>
	<g>
		<path class="st0" d="M112.8,360.5c-0.4-0.4-0.9-0.7-1.5-0.8c-0.6-0.1-1.2,0.1-1.7,0.5c-1.8,1.3-3.6,2.4-5.6,3.1
			c-1.9,0.7-4,1.1-6.1,1.1c-2.6,0-5-0.5-7.2-1.5s-4.2-2.4-5.9-4.2c-1.7-1.8-3-3.9-4-6.2c-0.9-2.3-1.4-4.9-1.4-7.6
			c0-2.6,0.5-5.1,1.4-7.5s2.3-4.4,4-6.2c1.7-1.8,3.7-3.2,5.9-4.2c2.2-1,4.7-1.6,7.2-1.6c2.5,0,4.7,0.3,6.4,1c1.8,0.7,3.4,1.7,5,3.1
			c0.5,0.4,1.1,0.6,1.6,0.6c0.5,0,1-0.1,1.4-0.4c0.4-0.3,0.6-0.6,0.7-1.1c0.2-0.2,0.4-0.5,0.5-0.8c0.1-0.3,0.1-0.7,0-1
			c-0.1-0.3-0.3-0.7-0.7-0.9c-2.2-1.9-4.5-3.2-6.9-4c-2.4-0.8-5-1.2-8-1.2c-3.3,0-6.4,0.6-9.3,1.9c-2.9,1.3-5.4,3-7.5,5.2
			c-2.2,2.2-3.8,4.8-5,7.7c-1.2,2.9-1.8,6.1-1.8,9.4c0,3.4,0.6,6.6,1.8,9.5c1.2,2.9,2.9,5.5,5,7.7c2.2,2.2,4.7,4,7.5,5.2
			c2.8,1.2,5.9,1.9,9.2,1.9c2.8,0,5.4-0.4,7.9-1.2c2.5-0.8,4.8-2.2,6.9-4c0.2-0.3,0.4-0.6,0.6-0.9c0.1-0.3,0.2-0.6,0.2-1
			C113.4,361.5,113.2,360.9,112.8,360.5z"/>
		<path class="st0" d="M132.7,364.4c-0.4-0.5-0.9-0.7-1.6-0.7h-1.5c-1.1,0-1.9-0.5-2.6-1.6c-0.7-1.1-1-2.4-1-4.1v-34.1
			c0-0.8-0.2-1.4-0.7-1.9c-0.5-0.5-1.1-0.7-1.8-0.7c-0.8,0-1.4,0.2-1.9,0.7c-0.5,0.5-0.7,1.1-0.7,1.9V358c0,2.1,0.4,4,1.1,5.6
			s1.7,2.9,3,3.8c1.3,0.9,2.8,1.4,4.5,1.4h0.5c0.9,0,1.7-0.2,2.3-0.7c0.6-0.5,0.9-1.1,0.9-1.9C133.3,365.4,133.1,364.8,132.7,364.4z
			"/>
		<path class="st0" d="M144.3,336.2c-0.5-0.5-1.1-0.7-1.9-0.7s-1.4,0.2-1.9,0.7c-0.5,0.5-0.7,1.1-0.7,1.9v28c0,0.8,0.2,1.5,0.7,1.9
			c0.5,0.5,1.1,0.7,1.9,0.7s1.4-0.2,1.9-0.7c0.5-0.5,0.7-1.1,0.7-1.9v-28C145,337.3,144.8,336.6,144.3,336.2z M150.4,319.5
			c-0.5-0.5-1.1-0.8-1.8-0.8s-1.3,0.3-1.8,0.8l-6.6,6.6c-0.4,0.5-0.5,1-0.5,1.8c0,0.7,0.2,1.3,0.7,1.8c0.5,0.5,1.1,0.8,1.8,0.8
			s1.3-0.2,1.8-0.7l6.5-6.6c0.3-0.2,0.5-0.5,0.6-0.8c0.1-0.3,0.1-0.6,0.1-0.9C151.2,320.6,150.9,320,150.4,319.5z"/>
		<path class="st0" d="M185.2,342.2c-1.3-2.3-3.1-4.1-5.3-5.2c-2.2-1.2-4.8-1.8-7.6-1.8c-2.6,0-5,0.6-7.2,1.8
			c-1.4,0.8-2.6,1.7-3.6,2.8c-0.6,0.6-1,1.2-1.5,1.9c-1.3,2-2,4.3-2,6.8h3.5c0-1.7,0.4-3.1,1.3-4.4c0.9-1.3,2.1-2.3,3.6-3
			c1.5-0.8,3.2-1.1,5.1-1.1c2,0,3.8,0.4,5.4,1.2c1.6,0.8,2.8,2,3.7,3.5c0.9,1.6,1.4,3.6,1.4,6v15.5c0,0.7,0.2,1.3,0.7,1.8
			c0.5,0.5,1.1,0.7,1.9,0.7c0.7,0,1.3-0.2,1.8-0.7c0.5-0.5,0.7-1.1,0.7-1.8v-15.5C187.2,347.3,186.5,344.5,185.2,342.2z
			 M160.7,336.2c-0.5-0.5-1.1-0.7-1.8-0.7c-0.8,0-1.5,0.2-1.9,0.7c-0.5,0.5-0.7,1.1-0.7,1.9v28.1c0,0.8,0.2,1.4,0.7,1.9
			c0.5,0.5,1.1,0.7,1.9,0.7c0.8,0,1.4-0.2,1.8-0.7c0.5-0.5,0.7-1.1,0.7-1.9v-28.1C161.4,337.3,161.2,336.6,160.7,336.2z"/>
		<path class="st0" d="M202.2,336.2c-0.5-0.5-1.1-0.7-1.8-0.7c-0.8,0-1.4,0.2-1.9,0.7c-0.5,0.5-0.7,1.1-0.7,1.9v28
			c0,0.8,0.2,1.5,0.7,1.9c0.5,0.5,1.1,0.7,1.9,0.7c0.8,0,1.4-0.2,1.8-0.7c0.5-0.5,0.7-1.1,0.7-1.9v-28
			C202.9,337.3,202.7,336.6,202.2,336.2z M202.7,323.4c-0.7-0.7-1.5-1-2.5-1s-1.8,0.3-2.5,1c-0.7,0.6-1.1,1.5-1.1,2.5
			c0,1,0.3,1.8,1,2.5c0.7,0.7,1.5,1.1,2.5,1.1s1.8-0.4,2.5-1.1c0.7-0.7,1-1.5,1-2.5C203.8,324.9,203.4,324,202.7,323.4z"/>
		<path class="st0" d="M222.6,341.4c1.7-1.1,3.6-1.6,5.9-1.6c3.4,0,6.2,1.2,8.4,3.8c0.5,0.5,1,0.8,1.6,0.9c0.6,0.1,1.1,0,1.6-0.3
			c0.6-0.5,1-1,1.1-1.5c0.1-0.6,0-1.2-0.5-1.7c-1.6-1.9-3.4-3.3-5.5-4.3c-2.1-1-4.3-1.4-6.7-1.4c-3.2,0-5.9,0.7-8.3,2.2
			c-2.4,1.5-4.3,3.5-5.7,6c-1.4,2.5-2.1,5.5-2.1,8.7c0,3.2,0.7,6.1,2.2,8.6c1.4,2.6,3.4,4.6,5.9,6s5.4,2.2,8.6,2.2
			c4.4,0,8.1-1.4,11.1-4.1c0.5-0.5,0.7-1,0.6-1.6s-0.4-1.2-0.9-1.6c-0.5-0.4-1-0.5-1.6-0.5s-1.1,0.3-1.7,0.7c-1,0.9-2.1,1.5-3.3,1.9
			c-1.2,0.4-2.6,0.6-4.2,0.6c-2.3,0-4.3-0.5-6-1.6c-1.8-1.1-3.1-2.5-4.1-4.4c-1-1.8-1.5-3.9-1.5-6.3c0-2.4,0.5-4.6,1.4-6.4
			C219.6,343.9,220.9,342.4,222.6,341.4z"/>
		<path class="st0" d="M277.6,350.8l-1.2,5.3v10c0,0.8,0.3,1.4,0.8,1.9c0.5,0.5,1.1,0.7,1.9,0.7c0.8,0,1.4-0.2,1.9-0.7
			c0.5-0.5,0.7-1.1,0.7-1.9v-14L277.6,350.8z M279.4,343.4c-1.5-2.5-3.5-4.6-6-6c-2.5-1.5-5.4-2.2-8.5-2.2c-3.2,0-6.1,0.7-8.6,2.2
			c-2.6,1.5-4.6,3.5-6,6s-2.2,5.5-2.2,8.7c0,3.2,0.7,6.1,2.1,8.6c1.4,2.6,3.3,4.6,5.8,6s5.2,2.2,8.3,2.2c3,0,5.6-0.7,7.9-2.1
			c1.7-1,3.2-2.4,4.4-4c0.4-0.5,0.8-1.1,1.1-1.7c1.4-2.4,2-5.1,2-8.1l2.1-1C281.6,348.9,280.9,346,279.4,343.4z M275.1,358.4
			c-1,1.9-2.4,3.3-4.2,4.4c-1.8,1.1-3.8,1.6-6,1.6c-2.2,0-4.2-0.5-6-1.6c-1.8-1.1-3.2-2.5-4.3-4.4c-1.1-1.9-1.6-4-1.6-6.3
			c0-2.4,0.5-4.5,1.6-6.3c1.1-1.8,2.5-3.3,4.3-4.4c1.8-1.1,3.8-1.6,6-1.6c2.3,0,4.3,0.5,6,1.6c1.8,1.1,3.2,2.6,4.2,4.4
			c1,1.8,1.5,3.9,1.5,6.3C276.6,354.4,276.1,356.5,275.1,358.4z"/>
	</g>
	<path class="st0" d="M344.8,794v-75.3v-49.1c0-8.8-7.1-15.9-15.9-15.9h0c-8.8,0-15.9,7.1-15.9,15.9v126.5
		c0,30.1,12.1,57.4,31.7,77.3c20,20.3,47.8,32.9,78.5,32.9c30.7,0,58.5-12.6,78.5-32.9c19.6-19.9,31.7-47.2,31.7-77.3V669.6
		c0-8.8-7.1-15.9-15.9-15.9h0c-8.8,0-15.9,7.1-15.9,15.9v49.1v77.3c0,44.3-36.6,80-81.2,78.5C378,873.1,344.8,836.7,344.8,794z"/>
	<path class="st0" d="M501.8,232l0,75.3l0,49.1c0,8.8,7.1,15.9,15.9,15.9h0c8.8,0,15.9-7.1,15.9-15.9l0-126.5
		c0-30.1-12.1-57.4-31.7-77.3c-20-20.3-47.8-32.9-78.5-32.9c-30.7,0-58.5,12.6-78.5,32.9c-19.6,19.9-31.7,47.2-31.7,77.3l0,126.5
		c0,8.8,7.1,15.9,15.9,15.9h0c8.8,0,15.9-7.1,15.9-15.9l0-49.1v-77.3c0-44.3,36.6-80,81.2-78.5C468.7,152.9,501.8,189.3,501.8,232z"
		/>
	<path class="st0" d="M142.6,434.8h75.3H267c8.8,0,15.9-7.1,15.9-15.9v0c0-8.8-7.1-15.9-15.9-15.9H140.5
		c-30.1,0-57.4,12.1-77.3,31.7c-20.3,20-32.9,47.8-32.9,78.5c0,30.7,12.6,58.5,32.9,78.5c19.9,19.6,47.2,31.7,77.3,31.7H267
		c8.8,0,15.9-7.1,15.9-15.9v0c0-8.8-7.1-15.9-15.9-15.9h-49.1h-77.3c-44.3,0-80-36.6-78.5-81.2C63.5,468,99.9,434.8,142.6,434.8z"/>
</g>
</svg>
