<?xml version="1.0" encoding="utf-8"?>
<!-- Generator: Adobe Illustrator 25.2.1, SVG Export Plug-In . SVG Version: 6.00 Build 0)  -->
<svg version="1.1" id="Camada_1" xmlns="http://www.w3.org/2000/svg" xmlns:xlink="http://www.w3.org/1999/xlink" x="0px" y="0px"
	 viewBox="0 0 247.4 203" style="enable-background:new 0 0 247.4 203;" xml:space="preserve">
<style type="text/css">
	.st0{display:none;}
	.st1{display:inline;fill:#8C6969;}
	.st2{fill:#FFFFFF;}
	.st3{fill:#EDD3A3;}
	.st4{fill:#EDEAF1;}
	.st5{fill:#EBF1EC;}
	.st6{fill:#F6E8E3;}
</style>
<g id="Camada_2_1_" class="st0">
	<rect x="-31.4" y="-73.5" class="st1" width="385.2" height="385.2"/>
</g>
<g id="Camada_1_1_">
	<g>
		<path class="st2" d="M0,99.1c0.5-1,0.4-2.1,0.6-3.1c2.5-12.1,12-21,24.2-22.6c0.9-0.1,1.8-0.2,2.7-0.2c11.1,0,22.2,0,33.2,0
			c1.7,0,3,0.8,3.8,2.3c0.7,1.4,0.5,2.9-0.4,4.2c-0.9,1.2-2.2,1.6-3.7,1.7c-1.7,0-3.4,0-5,0c-9.1,0-18.2-0.1-27.2,0
			C18.8,81.5,11,87.8,8.8,97c-3,12.3,6.4,24.6,19.1,24.8c10.8,0.1,21.6,0,32.4,0c2.6,0,4.2,1.2,4.7,3.4c0.4,2.2-1.2,4.4-3.4,4.7
			c-0.4,0-0.7,0-1.1,0c-10.6,0-21.1,0-31.7,0c-14.9-0.1-26.6-10.4-28.5-25.2c0-0.3,0.1-0.6-0.3-0.7c0-0.2,0-0.3,0-0.5
			c0.2-1.3,0.2-2.6,0-3.8C0,99.4,0,99.3,0,99.1z"/>
		<path class="st3" d="M0,99.6c0.4,1.3,0.4,2.6,0,3.8C0,102.2,0,100.9,0,99.6z"/>
		<path class="st4" d="M100.3,0.2c0-0.1,0-0.1,0-0.2c0.8,0,1.6,0,2.4,0c0,0.1,0,0.1,0,0.2C101.9,0.8,101.1,0.8,100.3,0.2z"/>
		<path class="st5" d="M247.2,100.5c0.1,0,0.1,0,0.2,0c0,0.7,0,1.4,0,2.2h-0.1h-0.1C246.7,102,246.6,101.3,247.2,100.5z"/>
		<path class="st6" d="M102.5,202.8c0,0.1,0,0.1,0,0.2c-0.7,0-1.4,0-2.2,0c0-0.1,0-0.1,0-0.2C101,202.2,101.8,202.2,102.5,202.8z"/>
		<path class="st2" d="M100.3,0.2c0.8,0,1.6,0,2.4,0c13.4,1,23.6,9.7,26.5,22.6c0.4,1.8,0.6,3.6,0.6,5.5c0,10.8,0,21.5,0,32.3
			c0,1.8-0.7,3.3-2.4,4.1c-1.5,0.7-3,0.5-4.3-0.6c-1.1-0.9-1.5-2.1-1.5-3.5c0-10.7,0.1-21.4,0-32.1c-0.1-8.2-4-14.3-11.3-18
			c-12.5-6.3-27.5,2-29,15.9c-0.1,1.1-0.2,2.2-0.2,3.2c0,10.4,0,20.9,0,31.3c0,1.9-1,3.3-2.8,3.9c-1.6,0.6-3.3,0-4.4-1.3
			c-0.7-0.8-0.9-1.8-0.9-2.9c0-10.8-0.1-21.6,0-32.4C73.2,14.3,83.2,2.7,96.9,0.5C98.1,0.4,99.2,0.3,100.3,0.2z"/>
		<path class="st2" d="M102.5,202.8c-0.7,0-1.4,0-2.2,0c-13.8-0.7-23.8-10.4-26.5-21.9c-0.5-2.1-0.8-4.3-0.8-6.4c0-10.7,0-21.4,0-32
			c0-3.3,2.8-5.4,5.6-4.2c1.6,0.7,2.5,2.1,2.5,4.1c0,10.6-0.1,21.2,0,31.8c0.1,8.5,4,14.9,11.7,18.6c12.3,5.9,26.9-2.2,28.6-15.7
			c0.1-1.1,0.2-2.2,0.2-3.3c0-10.5,0-21,0-31.4c0-3.2,2.9-5.2,5.6-4c1.7,0.8,2.5,2.2,2.5,4c0,3.8,0,7.5,0,11.3
			c0,7.1,0.1,14.2,0,21.2c-0.2,12.8-8.8,23.8-21.2,27.1C106.6,202.4,104.6,202.7,102.5,202.8z"/>
		<path class="st2" d="M17.8,52c1.1,0,2.2,0.3,3.2,1c0.3,0.2,0.8,0.4,0.5,0.9s-0.7,0.3-1.1,0c-2.5-1.8-5.6-0.5-6.8,1.6
			c-1.1,2-0.9,4.4,0.7,6.1c1.6,1.7,3.9,2,5.9,0.8c0.1-0.1,0.2-0.1,0.3-0.2c0.3-0.2,0.7-0.5,1,0c0.4,0.5-0.1,0.8-0.4,1.1
			c-1.2,0.9-2.6,1.2-4.1,1c-3.2-0.4-5.6-3.4-5.4-6.6C11.8,54.4,14.4,52,17.8,52z"/>
		<path class="st2" d="M32.7,59.8c0-1.1,0-2.2,0-3.2c0-0.4,0-0.8,0.4-0.9s0.7,0.1,0.8,0.5c0.1,0.5,0.4,0.2,0.6,0.1
			c3.4-1.7,6.1-0.1,6.1,3.7c0,1.1,0,2.2,0,3.2c0,0.4-0.1,0.8-0.7,0.8c-0.5,0-0.5-0.4-0.5-0.8c0-1.3,0-2.6,0-3.8c0-1.1-0.4-2-1.4-2.4
			c-1.1-0.5-2.2-0.4-3.2,0.3c-0.6,0.4-0.9,1.1-0.9,1.9c0,1.3,0,2.6,0,4c0,0.5,0,1-0.6,0.9c-0.5,0-0.6-0.5-0.6-0.9
			C32.7,62,32.7,60.9,32.7,59.8z"/>
		<path class="st2" d="M51.4,55.6c1-0.1,1.9,0.3,2.7,1.1c0.3,0.3,0.6,0.6,0.2,1c-0.3,0.3-0.6,0-0.9-0.2c-1.5-1.1-2.9-1.2-4-0.2
			c-1.1,0.9-1.3,2.9-0.5,4.2c0.8,1.4,2.7,1.9,4.3,1c0.4-0.2,0.8-0.6,1.1-0.1c0.4,0.6-0.2,0.8-0.5,1c-1.4,1-3.5,0.8-4.9-0.2
			c-1.4-1.1-1.9-3.1-1.3-4.9C48.1,56.6,49.5,55.6,51.4,55.6z"/>
		<path class="st2" d="M23.7,57.4c0-1.5,0-3,0-4.4c0-0.4,0-0.9,0.6-0.9s0.5,0.5,0.5,0.9c0,2.7,0,5.4,0,8c0,1,0.1,1.9,1.4,1.9
			c0.3,0,0.5,0.3,0.5,0.6c0,0.4-0.3,0.5-0.7,0.6c-1.1,0.2-2.2-0.8-2.2-2.2C23.7,60.4,23.7,58.9,23.7,57.4L23.7,57.4z"/>
		<path class="st2" d="M28.6,59.7c0-1.1,0-2.2,0-3.3c0-0.4,0.1-0.7,0.6-0.7s0.6,0.3,0.6,0.7c0,2.3,0,4.6,0,6.9
			c0,0.4-0.1,0.8-0.6,0.8s-0.6-0.4-0.6-0.8C28.6,62.1,28.6,60.9,28.6,59.7z"/>
		<path class="st2" d="M44.7,59.9c0,1.1,0,2.2,0,3.2c0,0.4,0,0.9-0.5,0.9s-0.7-0.4-0.7-0.8c0-2.2,0-4.5,0-6.7c0-0.4,0.1-0.8,0.6-0.8
			c0.6,0,0.6,0.5,0.6,0.9C44.7,57.6,44.7,58.8,44.7,59.9z"/>
		<path class="st2" d="M31.3,52.1c0,0.4-1.8,2.3-2.2,2.3c-0.3,0-0.4-0.1-0.6-0.4c-0.1-0.2-0.1-0.5,0.1-0.7c0.6-0.6,1.1-1.2,1.8-1.8
			C30.8,51.3,31.2,51.6,31.3,52.1z"/>
		<path class="st2" d="M45.1,53.2C45,53.7,44.8,54,44.3,54s-0.8-0.3-0.8-0.8s0.3-0.8,0.8-0.9C44.7,52.4,45,52.7,45.1,53.2z"/>
		<path class="st2" d="M65.1,59c-0.3-1.6-1.2-2.7-2.7-3.2c-1.6-0.5-3.2-0.3-4.5,0.9c-1.6,1.5-1.7,4.3-0.3,6c1.5,1.8,4,1.8,6.2,0
			c0.1,0.6,0,1.4,0.8,1.3c0.7-0.1,0.6-0.8,0.5-1.3C65.2,61.5,65.3,60.2,65.1,59z M60.8,63c-1.8,0-3.2-1.5-3.1-3.3
			c0.1-1.7,1.5-3.1,3.2-3.1c1.8,0,3.1,1.4,3.1,3.3C63.9,61.7,62.6,63,60.8,63z"/>
		<g>
			<path class="st2" d="M106.7,117.5c-1.9,0-3.3,1.5-3.3,3.4s1.4,3.3,3.2,3.3c2,0,3.3-1.3,3.3-3.3
				C110,118.9,108.7,117.5,106.7,117.5z"/>
			<path class="st2" d="M247,97.9c-1.7-13.8-13.6-24.5-27.4-24.7c-3,0-5.9-0.1-8.9-0.1c-14.3,0-28.6,0-42.8,0c-29.8,0-59.7,0-89.5,0
				c-3.5,0-5.4,2.3-5.3,5.3c0.1,7.1,0.1,14.2,0.1,21.3c0,8.4,0,16.8,0,25.2c0,3.4,1.7,5.1,5.1,5.1c44.3,0,88.6,0,132.9,0
				c4,0,8.1,0,12.1-0.7c4.5-0.9,8.8-2.2,12.5-5c7.1-5.5,10.6-12.8,11.4-21.6c0-0.7,0-1.4,0-2.2C247.1,99.7,247.1,98.8,247,97.9z
				 M98.7,107.1c0,1.7-1.2,2.7-2.6,2c-0.8-0.4-1.1-1.1-1-2c0-3.5,0-7,0-10.5c0-3.4,0-6.9,0-10.3c0-1.6,0.6-2.4,1.8-2.4
				c1.2,0,1.8,0.8,1.8,2.3C98.7,93.2,98.7,100.2,98.7,107.1z M96.9,83c-1,0-1.9-0.8-1.9-1.9c0-1,0.8-1.8,1.8-1.8s1.9,0.8,1.9,1.9
				C98.7,82.1,97.9,82.9,96.9,83z M110.8,125.5c-0.9,0.1-0.7-0.7-0.9-1.4c-1.7,1.5-3.5,1.9-5.4,0.9c-1.6-0.8-2.6-2.7-2.4-4.5
				c0.2-2,1.4-3.5,3.3-4.1c2.9-0.9,5.9,1.2,6,4.2c0,1.2,0,2.3,0,3.5C111.4,124.6,111.7,125.4,110.8,125.5z M126,123.3
				c0.9,0.9,2.5,1.2,3.8,0.6c0.2-0.1,0.4-0.2,0.5-0.3c0.4-0.2,0.8-0.4,1.1,0c0.4,0.5,0,0.8-0.4,1.1c-0.8,0.6-1.7,0.9-2.7,0.8
				c-2,0-3.8-1.2-4.4-3.1c-0.7-2,0-4.2,1.6-5.4c1.5-1.1,3.6-1.2,5.2-0.1c0.2,0.2,0.4,0.3,0.6,0.5c0.3,0.3,0.6,0.7,0.2,1.1
				s-0.7,0.2-1-0.1c-0.5-0.5-1.1-0.8-1.8-0.9c-1.5-0.2-2.6,0.4-3.2,1.6C124.8,120.5,125,122.2,126,123.3z M151.4,121.2
				c-0.9,0-1.8,0-2.6,0c-1,0-1.9,0-2.9,0c-0.7,0-0.7,0.2-0.5,0.8c0.5,1.8,2.7,2.7,4.6,1.9c0.2-0.1,0.4-0.2,0.5-0.3
				c0.4-0.3,0.9-0.6,1.2,0c0.4,0.7-0.2,0.9-0.7,1.1c-1.7,1-3.9,0.9-5.4-0.2s-2.2-3.2-1.6-5.3c0.5-1.8,2.1-3.1,3.9-3.2
				c2-0.1,3.6,0.8,4.3,2.6c0.1,0.4,0.2,0.8,0.3,1.2C152.7,120.8,152.4,121.2,151.4,121.2z M171.8,123.1c-0.1,1.4-1.6,2.4-3.6,2.4
				c-1.2,0-2.4-0.3-3.3-1.1c-0.4-0.3-0.7-0.6-0.3-1.1c0.4-0.4,0.8-0.4,1.1,0c1,0.9,2.2,1,3.4,0.8c0.7-0.1,1.2-0.4,1.3-1.2
				c0.1-0.7-0.5-1.1-1.1-1.3c-0.9-0.3-1.8-0.4-2.7-0.7c-1.1-0.4-1.9-1-1.9-2.3s0.8-1.9,2-2.3c1.6-0.5,3.1-0.3,4.4,0.9
				c0.3,0.3,0.7,0.7,0.3,1.1c-0.4,0.4-0.8,0.3-1.2-0.1c-0.8-0.8-1.8-0.8-2.8-0.7c-0.6,0.1-1.2,0.3-1.3,1.1c-0.1,0.7,0.4,1,1,1.2
				c0.5,0.2,1.1,0.3,1.6,0.4C171,120.7,172,121.6,171.8,123.1z M182.9,94.8c-0.1-3.9-2.9-7.1-6.8-7.7c-3.8-0.6-7.5,1.8-8.7,5.5
				c-0.1,0.4-0.4,1.2-0.4,2.4c0,3.8,0,8.2,0,12c0,1.5-0.7,2.4-1.8,2.3c-1.1,0-1.8-0.9-1.8-2.4c0-3.9,0-7.8,0-11.8
				c0-4.6-3.5-8.2-7.9-8.1c-4.5,0-7.9,3.6-7.9,8.2c0,3.9,0,7.8,0,11.8c0,1.5-0.7,2.3-1.8,2.3c-1.1,0-1.8-0.9-1.8-2.3
				c0-3.9,0-7.8,0-11.6c0-0.5,0.1-1.1-0.2-1.6l0,0c-0.3-3.3-3.2-6.2-6.7-6.7c-3.6-0.5-7.1,1.7-8.4,5c-0.4,1-0.5,2-0.5,3.1
				c0,3.8,0,7.5,0,11.3c0,0.3,0,0.6,0,0.8c-0.1,1.2-0.8,2.1-1.9,2c-1,0-1.7-0.8-1.7-2.1c0-3,0-9,0-12c0-6.1-4.5-8.2-7.4-8.2
				s-5.7,1-7.4,4c-0.7,1.3-1,2.7-1,4.1c0,3.8,0,7.7,0,11.5c0,0.4,0,0.7,0,1.1c-0.2,1-1,1.7-1.9,1.6c-1-0.1-1.6-0.7-1.6-1.7
				c0-4.8-0.2-9.5,0.1-14.3c0.3-4.3,3.8-8.3,8.2-9.4c4.8-1.3,8.9,0.1,12.1,3.9c0.6,0.7,0.8,0.8,1.5,0c4.2-5.5,13.5-6.5,18.8,0.9
				c2.4-3.3,5.5-5.3,9.7-5.2c4.1,0,7.4,1.8,9.8,5.2c0.6-0.6,1-1.2,1.6-1.7c3.2-3.1,7-4.2,11.3-3c4.4,1.2,7.1,4.3,8.2,8.7
				c0.2,0.9,0.2,1.7,0.2,2.6c0,3.9,0,7.8,0,11.6c0,1.6-0.6,2.5-1.8,2.5c-1.2,0-1.8-0.9-1.8-2.6C182.9,102.8,183,98.8,182.9,94.8z
				 M189.7,125c-0.7,0.4-1.5,0.6-2,0.6c-1.5,0-2.7-0.3-3.6-1.1c-0.4-0.3-0.6-0.7-0.2-1.1s0.8-0.3,1.1,0c1,0.9,2.2,0.9,3.4,0.8
				c0.7-0.1,1.2-0.5,1.3-1.2c0-0.7-0.5-1.1-1.1-1.2c-0.8-0.2-1.7-0.4-2.5-0.7c-1.4-0.4-2-1.2-2-2.4c0-1.1,0.7-2,2.1-2.3
				c1.6-0.4,3.1-0.2,4.3,1c0.3,0.3,0.6,0.6,0.2,1c-0.3,0.3-0.8,0.3-1.1,0c-0.9-0.9-1.9-0.9-3-0.8c-0.6,0.1-1.1,0.4-1.1,1
				s0.3,1,0.9,1.1c0.6,0.2,1.1,0.4,1.7,0.5s1.1,0.3,1.6,0.5c0.9,0.4,1.4,1,1.4,2C191.1,123.8,190.5,124.5,189.7,125z M207.5,125.5
				c-2.7,0-4.7-2-4.7-4.7s2-4.7,4.7-4.7s4.7,1.9,4.7,4.7S210.3,125.5,207.5,125.5z M216.3,109.5c-1.2,0-1.8-0.8-1.8-2.3
				c0-3.4,0-6.9,0-10.3c0-6.5-5.3-9.7-8.4-9.7s-6,0.5-8.3,3.5c-2.7,3.4-2.7,8-0.1,11.5s7,4.6,11.2,3c0.3-0.1,0.5-0.2,0.8-0.3
				c1.1-0.4,2-0.1,2.5,0.8c0.4,0.9,0.1,2-1,2.5c-4.2,1.9-8.4,2.1-12.4-0.3c-3.8-2.2-6.7-6.9-6.7-11.3c0-11.3,10.5-13.5,14.8-13
				c5.4,0.6,10.1,5,11.2,10.4c0.3,1.5,0.2,2.9,0.2,4.4c0,2.9,0,5.8,0,8.8C218.2,108.7,217.5,109.5,216.3,109.5z"/>
			<path class="st2" d="M207.5,117.5c-1.9,0-3.3,1.4-3.3,3.3s1.3,3.3,3.2,3.3c2,0,3.3-1.2,3.3-3.3
				C210.8,118.8,209.5,117.5,207.5,117.5z"/>
			<path class="st2" d="M147.7,117.5c-1.3,0.1-2.1,1-2.4,2.5c1.7,0,3.4,0,5.1,0c0.7,0,0.6-0.3,0.5-0.8
				C150.5,117.9,149.4,117.4,147.7,117.5z"/>
		</g>
	</g>
</g>
</svg>
